<?xml version="1.0" encoding="utf-8"?>
<!-- Generator: Adobe Illustrator 15.0.0, SVG Export Plug-In . SVG Version: 6.00 Build 0)  -->
<!DOCTYPE svg PUBLIC "-//W3C//DTD SVG 1.0//EN" "http://www.w3.org/TR/2001/REC-SVG-20010904/DTD/svg10.dtd">
<svg version="1.0" id="Layer_1" xmlns="http://www.w3.org/2000/svg" xmlns:xlink="http://www.w3.org/1999/xlink" x="0px" y="0px"
	 width="62px" height="45px" viewBox="0 0 62 45" enable-background="new 0 0 62 45" xml:space="preserve">
<g>
	<g id="g_1_">
		<path fill="#D14232" d="M33.797,25.167c-0.558-0.394-1.621-1.352-1.621-1.916c0-0.66,0.188-0.985,1.182-1.76
			c1.018-0.797,1.738-2.452,1.738-3.754c0-1.548-0.206-1.342-1.501-3.342h2l2-1c0,0-5.46,0-7,0c-2.761,0-5.669,2.379-5.669,4.801
			c0,2.476,1.883,4.495,4.69,4.495c0.195,0,0.385,0.005,0.57-0.009c-0.183,0.349-0.312,0.746-0.312,1.155
			c0,0.688,0.371,1.247,0.839,1.703c-0.354,0-0.695,0.013-1.068,0.013c-3.418,0-6.05,2.176-6.05,4.434
			c0,2.225,2.884,3.617,6.304,3.617c3.898,0,6.051-2.211,6.051-4.436C35.949,27.386,35.423,26.316,33.797,25.167z M30.508,22.083
			c-1.588-0.048-3.095-1.775-3.369-3.859c-0.273-2.082,0.791-3.676,2.377-3.629s3.094,1.719,3.367,3.801
			C33.156,20.479,32.094,22.13,30.508,22.083z M29.886,32.621c-2.362,0-4.069-1.496-4.069-3.294c0-1.761,2.116-3.227,4.479-3.201
			c0.552,0.006,1.065,0.095,1.532,0.246c1.283,0.891,2.203,1.396,2.463,2.412c0.049,0.207,0.074,0.418,0.074,0.635
			C34.365,31.218,33.209,32.621,29.886,32.621z"/>
	</g>
	<g>
		<path fill="#D14232" d="M40.595,16.396v3h3v1h-3v3h-1v-3h-3v-1h3v-3H40.595z"/>
	</g>
</g>
</svg>
