<?xml version="1.0" encoding="utf-8"?>
<!-- Generator: Adobe Illustrator 15.0.0, SVG Export Plug-In . SVG Version: 6.00 Build 0)  -->
<!DOCTYPE svg PUBLIC "-//W3C//DTD SVG 1.0//EN" "http://www.w3.org/TR/2001/REC-SVG-20010904/DTD/svg10.dtd">
<svg version="1.0" id="Layer_1" xmlns="http://www.w3.org/2000/svg" xmlns:xlink="http://www.w3.org/1999/xlink" x="0px" y="0px"
	 width="29.993px" height="40.343px" viewBox="0 0 29.993 40.343" enable-background="new 0 0 29.993 40.343" xml:space="preserve">
<g>
	<ellipse opacity="0.1" enable-background="new    " cx="14.808" cy="37.094" rx="12.646" ry="2.149"/>
	<g>
		<polygon fill="#999999" points="15.036,24.244 22.178,24.244 18.606,30.272 15.036,36.378 11.465,30.311 7.894,24.244 		"/>
		<path fill="#999999" d="M15.036,1.513c-7.569,0-13.705,6.136-13.705,13.705s6.136,13.704,13.705,13.704
			c7.569,0,13.705-6.133,13.705-13.704C28.741,7.648,22.604,1.513,15.036,1.513z M15.036,21.985c-3.738,0-6.767-3.029-6.767-6.767
			c0-3.738,3.029-6.767,6.767-6.767c3.738,0,6.767,3.029,6.767,6.767C21.803,18.956,18.773,21.985,15.036,21.985z"/>
	</g>
</g>
</svg>
