<?xml version="1.0" encoding="utf-8"?>
<!-- Generator: Adobe Illustrator 15.0.0, SVG Export Plug-In . SVG Version: 6.00 Build 0)  -->
<!DOCTYPE svg PUBLIC "-//W3C//DTD SVG 1.0//EN" "http://www.w3.org/TR/2001/REC-SVG-20010904/DTD/svg10.dtd">
<svg version="1.0" id="Layer_1" xmlns="http://www.w3.org/2000/svg" xmlns:xlink="http://www.w3.org/1999/xlink" x="0px" y="0px"
	 width="29.993px" height="40.343px" viewBox="0 0 29.993 40.343" enable-background="new 0 0 29.993 40.343" xml:space="preserve">
<g>
	<ellipse opacity="0.1" cx="14.808" cy="37.094" rx="12.645" ry="2.149"/>
	<g>
		<polygon fill="#FFFFFF" points="15.036,24.243 22.178,24.243 18.606,30.272 15.036,36.379 11.465,30.311 7.894,24.243 		"/>
		<path fill="#FFFFFF" d="M15.036,1.513c-7.569,0-13.705,6.136-13.705,13.705s6.136,13.704,13.705,13.704S28.74,22.788,28.74,15.218
			S22.604,1.513,15.036,1.513z M15.036,21.985c-3.738,0-6.767-3.029-6.767-6.767s3.029-6.767,6.767-6.767s6.767,3.029,6.767,6.767
			S18.773,21.985,15.036,21.985z"/>
	</g>
</g>
</svg>
