<?xml version="1.0" encoding="utf-8"?>
<!-- Generator: Adobe Illustrator 15.0.0, SVG Export Plug-In . SVG Version: 6.00 Build 0)  -->
<!DOCTYPE svg PUBLIC "-//W3C//DTD SVG 1.0//EN" "http://www.w3.org/TR/2001/REC-SVG-20010904/DTD/svg10.dtd">
<svg version="1.0" id="Layer_1" xmlns="http://www.w3.org/2000/svg" xmlns:xlink="http://www.w3.org/1999/xlink" x="0px" y="0px"
	 width="35.025px" height="546.714px" viewBox="0 0 35.025 546.714" enable-background="new 0 0 35.025 546.714"
	 xml:space="preserve">
<g>
	<path fill="none" stroke="#666666" stroke-miterlimit="10" d="M15.816,12.812c0.604-0.623,0.979-1.613,0.979-2.549
		c0-1.908-1.546-3.527-3.456-3.527c-1.906,0-3.456,1.511-3.456,3.419c0,0.936,0.376,1.886,0.982,2.508
		C8.091,13.799,6.105,15.5,6.105,19.5h6.215h8.259c0-2-1.268-4.699-3.193-6.014C16.901,13.155,16.375,13.041,15.816,12.812z"/>
	<path fill="#666666" d="M24.895,12.85c0.663-0.682,1.075-1.494,1.075-2.521c0-2.093-1.696-3.73-3.789-3.73
		s-3.788,1.725-3.788,3.817c0,1.026,0.412,1.737,1.073,2.42C16.425,14.081,14.247,18,14.247,20h15.871
		C30.118,18,27.94,14.096,24.895,12.85z"/>
	<path fill="none" stroke="#FFFFFF" stroke-miterlimit="10" d="M21.278,21.096"/>
</g>
<g>
	<path fill="none" stroke="#000000" stroke-miterlimit="10" d="M15.816,60.799c0.604-0.621,0.979-1.613,0.979-2.549
		c0-1.908-1.546-3.527-3.456-3.527c-1.906,0-3.456,1.511-3.456,3.42c0,0.935,0.376,1.893,0.982,2.514
		C8.091,61.793,6.105,63.5,6.105,67.5h6.215h8.259c0-2-1.268-4.705-3.193-6.02C16.901,61.148,16.375,61.028,15.816,60.799z"/>
	<path d="M24.895,60.844c0.663-0.683,1.075-1.497,1.075-2.524c0-2.093-1.696-3.732-3.789-3.732s-3.788,1.724-3.788,3.817
		c0,1.026,0.412,1.743,1.073,2.425c-3.042,1.245-5.22,5.17-5.22,7.17h15.871C30.118,66,27.94,62.09,24.895,60.844z"/>
	<path fill="none" stroke="#FFFFFF" stroke-miterlimit="10" d="M21.278,69.082"/>
</g>
<g>
	<rect x="4.012" y="257.5" opacity="0.7" fill="#FFFFFF" enable-background="new    " width="27" height="27"/>
	<g>
		<line fill="none" stroke="#000000" stroke-miterlimit="10" x1="10.012" y1="271" x2="24.012" y2="271"/>
		<line fill="none" stroke="#000000" stroke-miterlimit="10" x1="17.76" y1="277.45" x2="24.062" y2="271.147"/>
		<line fill="none" stroke="#000000" stroke-miterlimit="10" x1="17.76" y1="264.78" x2="24.062" y2="271.083"/>
	</g>
</g>
<g>
	<rect x="4.012" y="141.5" width="27" height="27"/>
	<g>
		<line fill="none" stroke="#FFFFFF" stroke-miterlimit="10" x1="25.012" y1="155" x2="11.012" y2="155"/>
		<line fill="none" stroke="#FFFFFF" stroke-miterlimit="10" x1="17.2" y1="148.78" x2="10.897" y2="155.083"/>
		<line fill="none" stroke="#FFFFFF" stroke-miterlimit="10" x1="17.2" y1="161.45" x2="10.898" y2="155.147"/>
	</g>
</g>
<g>
	<line fill="none" stroke="#000000" stroke-miterlimit="10" x1="6.012" y1="465.214" x2="28.012" y2="465.214"/>
	<line fill="none" stroke="#000000" stroke-miterlimit="10" x1="19.012" y1="475.214" x2="28.912" y2="465.314"/>
	<line fill="none" stroke="#000000" stroke-miterlimit="10" x1="19.011" y1="455.314" x2="28.911" y2="465.214"/>
</g>
<g>
	<line fill="none" stroke="#FFFFFF" stroke-miterlimit="10" x1="29.012" y1="369.214" x2="7.012" y2="369.214"/>
	<line fill="none" stroke="#FFFFFF" stroke-miterlimit="10" x1="15.912" y1="359.314" x2="6.012" y2="369.214"/>
	<line fill="none" stroke="#FFFFFF" stroke-miterlimit="10" x1="15.913" y1="379.214" x2="6.013" y2="369.314"/>
</g>
</svg>
