<?xml version="1.0" encoding="utf-8"?>
<!-- Generator: Adobe Illustrator 15.0.0, SVG Export Plug-In . SVG Version: 6.00 Build 0)  -->
<!DOCTYPE svg PUBLIC "-//W3C//DTD SVG 1.0//EN" "http://www.w3.org/TR/2001/REC-SVG-20010904/DTD/svg10.dtd">
<svg version="1.0" id="Layer_1" xmlns="http://www.w3.org/2000/svg" xmlns:xlink="http://www.w3.org/1999/xlink" x="0px" y="0px"
	 width="62px" height="45px" viewBox="0 0 62 45" enable-background="new 0 0 62 45" xml:space="preserve">
<g>
	<path fill="#00AFE9" d="M40.455,17.65c0.274,3.246-1.06,6.012-1.503,7.003c-0.443,0.99-2.63,5.363-8.813,7.106
		c-6.184,1.741-11-1.776-11-1.776c4.339,0.546,7.071-2.016,7.071-2.016c-3.689-0.342-4.406-3.383-4.406-3.383
		c1.571,0.24,1.981-0.17,1.981-0.17c-3.997-1.195-3.724-4.783-3.724-4.783c1.639,0.785,2.083,0.479,2.083,0.479
		c-3.586-2.904-1.4-6.456-1.4-6.456c4.681,5.466,10.009,5.124,10.009,5.124c-0.136-1.186-0.136-4.351,3.007-5.625
		c3.154-1.28,5.466,1.16,5.466,1.16c1.264-0.079,3.43-1.248,3.43-1.248c-0.25,1.344-2.484,2.786-2.484,2.786
		c1.127-0.079,2.801-0.785,2.801-0.785C42.733,15.726,40.455,17.65,40.455,17.65z"/>
</g>
</svg>
